<svg id="Layer_1" data-name="Layer 1" xmlns="http://www.w3.org/2000/svg" viewBox="0 0 74.26 67.1"><defs><style>.cls-1{fill:#62b22d;}.cls-2{fill:#2d4d7e;}.cls-3{fill:#3ca9bb;}</style></defs><title>logo-pagaPoco</title><path class="cls-1" d="M73.88,18.32h7.89c4.26,0,7.21,2,7.21,6.52s-2.52,6.73-7,6.73H79v6.57H73.88V18.32ZM79,27.42H79.9c1.87,0,3.71,0,3.71-2.42s-1.71-2.52-3.71-2.52H79v4.94Z" transform="translate(-73.88 -17.67)"/><path class="cls-1" d="M92.79,34.71l-1.37,3.44H86l7.63-19.83H99.2l7.47,19.83h-5.5l-1.29-3.44h-7.1Zm3.6-10.26H96.34l-2.13,6.31h4.29Z" transform="translate(-73.88 -17.67)"/><path class="cls-1" d="M126.47,27.08c-0.05,2.89-.26,5.36-2,7.84a9.58,9.58,0,0,1-8.18,3.89c-6.23,0-10.57-4.23-10.57-10.47,0-6.44,4.37-10.68,10.76-10.68a9.21,9.21,0,0,1,8.94,5.55l-4.89,2.05a4.48,4.48,0,0,0-4.29-3.16c-3.39,0-5.15,3.23-5.15,6.26s1.84,6.21,5.23,6.21c2.24,0,3.94-1.16,4.15-3.44h-4.21v-4h10.23Z" transform="translate(-73.88 -17.67)"/><path class="cls-1" d="M132.31,34.71l-1.37,3.44h-5.47l7.63-19.83h5.63l7.47,19.83h-5.5l-1.29-3.44h-7.1Zm3.6-10.26h-0.05l-2.13,6.31H138Z" transform="translate(-73.88 -17.67)"/><path class="cls-2" d="M73.88,41.2h7.89c4.26,0,7.21,2,7.21,6.52s-2.52,6.73-7,6.73H79V61H73.88V41.2ZM79,50.3H79.9c1.87,0,3.71,0,3.71-2.42s-1.71-2.52-3.71-2.52H79V50.3Z" transform="translate(-73.88 -17.67)"/><path class="cls-2" d="M110.62,50.75a11,11,0,0,1-21.93,0c0-6,5.26-10.2,11-10.2s11,4.21,11,10.2M94,50.77a5.61,5.61,0,1,0,11.2,0,5.61,5.61,0,0,0-11.2,0" transform="translate(-73.88 -17.67)"/><path class="cls-2" d="M125.6,47.86a5.59,5.59,0,0,0-4.52-2.18,5.22,5.22,0,0,0-5.29,5.5,5.14,5.14,0,0,0,5.37,5.39,5.93,5.93,0,0,0,4.44-2.1v6.18a14.6,14.6,0,0,1-4.55.92,11,11,0,0,1-7.44-2.92,9.69,9.69,0,0,1-3.18-7.49,10.38,10.38,0,0,1,2.92-7.26,10.75,10.75,0,0,1,7.55-3.21,12.1,12.1,0,0,1,4.71,1v6.18Z" transform="translate(-73.88 -17.67)"/><path class="cls-2" d="M148.14,50.75a11,11,0,0,1-21.93,0c0-6,5.26-10.2,11-10.2s11,4.21,11,10.2m-16.57,0a5.61,5.61,0,1,0,11.2,0,5.61,5.61,0,0,0-11.2,0" transform="translate(-73.88 -17.67)"/><path class="cls-3" d="M84.55,79.76a5,5,0,1,1-5-5,5,5,0,0,1,5,5" transform="translate(-73.88 -17.67)"/><path class="cls-3" d="M100.15,70.73a5.59,5.59,0,0,0-4.52-2.18A5.22,5.22,0,0,0,90.34,74a5.14,5.14,0,0,0,5.36,5.39,5.93,5.93,0,0,0,4.44-2.1v6.18a14.59,14.59,0,0,1-4.55.92,11,11,0,0,1-7.44-2.92A9.69,9.69,0,0,1,85,74a10.37,10.37,0,0,1,2.92-7.26,10.75,10.75,0,0,1,7.55-3.21,12.09,12.09,0,0,1,4.71,1v6.18Z" transform="translate(-73.88 -17.67)"/><path class="cls-3" d="M122.68,73.63a11,11,0,0,1-21.93,0c0-6,5.26-10.2,11-10.2s11,4.21,11,10.2m-16.57,0a5.61,5.61,0,1,0,11.2,0,5.61,5.61,0,0,0-11.2,0" transform="translate(-73.88 -17.67)"/><polygon class="cls-3" points="51.8 46.42 56.87 46.42 60.9 57.01 65.16 46.42 70.29 46.42 73.28 66.24 68.13 66.24 66.68 54.83 66.63 54.83 61.87 66.24 59.82 66.24 55.27 54.83 55.22 54.83 53.56 66.24 48.43 66.24 51.8 46.42"/></svg>